<?xml version="1.0" encoding="UTF-8" standalone="no"?>
<!-- Created with Inkscape (http://www.inkscape.org/) -->

<svg
   xmlns:dc="http://purl.org/dc/elements/1.1/"
   xmlns:cc="http://creativecommons.org/ns#"
   xmlns:rdf="http://www.w3.org/1999/02/22-rdf-syntax-ns#"
   xmlns:svg="http://www.w3.org/2000/svg"
   xmlns="http://www.w3.org/2000/svg"
   xmlns:sodipodi="http://sodipodi.sourceforge.net/DTD/sodipodi-0.dtd"
   xmlns:inkscape="http://www.inkscape.org/namespaces/inkscape"
   id="svg2"
   version="1.1"
   inkscape:version="0.48.3.1 r9886"
   width="545.66876"
   height="765.35376"
   xml:space="preserve"
   sodipodi:docname="170520_c2c-A5-cover.svg"><metadata
     id="metadata8"><rdf:RDF><cc:Work
         rdf:about=""><dc:format>image/svg+xml</dc:format><dc:type
           rdf:resource="http://purl.org/dc/dcmitype/StillImage" /><dc:title /></cc:Work></rdf:RDF></metadata><defs
     id="defs6"><clipPath
       clipPathUnits="userSpaceOnUse"
       id="clipPath42"><path
         inkscape:connector-curvature="0"
         d="M 0,0 160,0 160,160 0,160 0,0 z"
         id="path44" /></clipPath><clipPath
       clipPathUnits="userSpaceOnUse"
       id="clipPath578"><path
         inkscape:connector-curvature="0"
         d="M 0,0 160,0 160,160 0,160 0,0 z"
         id="path580" /></clipPath><clipPath
       clipPathUnits="userSpaceOnUse"
       id="clipPath18"><path
         inkscape:connector-curvature="0"
         d="m 0,0 436.535,0 0,612.28302 -436.535,0 L 0,0 z"
         id="path20" /></clipPath></defs><sodipodi:namedview
     pagecolor="#cccccc"
     bordercolor="#666666"
     borderopacity="1"
     objecttolerance="10"
     gridtolerance="10"
     guidetolerance="10"
     inkscape:pageopacity="1"
     inkscape:pageshadow="2"
     inkscape:window-width="640"
     inkscape:window-height="480"
     id="namedview4"
     showgrid="false"
     inkscape:zoom="0.65978395"
     inkscape:cx="403.26351"
     inkscape:cy="59.121868"
     inkscape:current-layer="g27455"
     units="mm"
     guidecolor="#ff0000"
     guideopacity="0.47058824"
     guidehicolor="#00ff00"
     guidehiopacity="1"
     inkscape:snap-global="false"
     showguides="true"
     showborder="false"
     inkscape:showpageshadow="false"
     inkscape:guide-bbox="true"><sodipodi:guide
       position="21.259843,754.72441"
       orientation="0,1048.8189"
       id="guide4271" /><sodipodi:guide
       position="1070.0787,754.72441"
       orientation="744.09449,0"
       id="guide4273" /><sodipodi:guide
       position="1070.0787,10.62992"
       orientation="0,-1048.8189"
       id="guide4275" /><sodipodi:guide
       position="21.259843,10.62992"
       orientation="-744.09449,-4.6185278e-14"
       id="guide4277" /><sodipodi:guide
       position="545.669,10.63"
       orientation="-761.31029,0"
       id="guide4301" /><inkscape:grid
       type="xygrid"
       id="grid4326"
       empspacing="5"
       visible="true"
       enabled="true"
       snapvisiblegridlinesonly="true"
       units="mm"
       spacingx="8mm"
       spacingy="8mm"
       originx="10mm" /></sodipodi:namedview><g
     style="display:inline"
     id="refbuild"
     inkscape:groupmode="layer"
     inkscape:label="XX_Referenz"
     sodipodi:insensitive="true"><path
       style="color:#000000;fill:#ffffff;fill-opacity:1;fill-rule:nonzero;stroke:none;stroke-width:0;marker:none;visibility:visible;display:inline;overflow:visible;enable-background:accumulate"
       d="m 10.625,0 0,765.34375 10.625,0 524.40625,0 524.43755,0 10.625,0 0,-765.34375 -10.625,0 L 21.25,0 10.625,0 z"
       id="canvasfull"
       inkscape:connector-curvature="0" /><path
       style="color:#000000;fill:#ff00ff;fill-opacity:1;fill-rule:nonzero;stroke:none;stroke-width:0;marker:none;visibility:visible;display:inline;overflow:visible;enable-background:accumulate"
       d="m 10.625,0 0,765.34375 10.625,0 L 21.25,0 10.625,0 z"
       id="outercropleft"
       inkscape:connector-curvature="0" /><path
       style="color:#000000;fill:#ff00ff;fill-opacity:1;fill-rule:nonzero;stroke:none;stroke-width:0;marker:none;visibility:visible;display:inline;overflow:visible;enable-background:accumulate"
       d="m 10.625,754.71875 0,10.625 535.03125,0 0,-10.625 -535.03125,0 z"
       id="bottomcropleft"
       inkscape:connector-curvature="0" /><path
       style="color:#000000;fill:#ff00ff;fill-opacity:1;fill-rule:nonzero;stroke:none;stroke-width:0;marker:none;visibility:visible;display:inline;overflow:visible;enable-background:accumulate"
       d="m 10.625,0 0,10.625 535.03125,0 0,-10.625 L 10.625,0 z"
       id="topcropleft"
       inkscape:connector-curvature="0" /><path
       style="color:#000000;fill:none;stroke:#0000ff;stroke-width:1;stroke-linecap:butt;stroke-linejoin:miter;stroke-miterlimit:4;stroke-opacity:1;stroke-dasharray:none;stroke-dashoffset:0;marker:none;visibility:visible;display:inline;overflow:visible;enable-background:accumulate"
       d="m 10.629921,-10.00046 0,785.35433"
       id="beforecropleft"
       inkscape:connector-curvature="0"
       sodipodi:nodetypes="cc" /><path
       style="color:#000000;fill:#00ff00;fill-opacity:1;fill-rule:nonzero;stroke:none;stroke-width:0;marker:none;visibility:visible;display:inline;overflow:visible;enable-background:accumulate"
       d="m 1070.0938,0 0,765.34375 10.625,0 0,-765.34375 -10.625,0 z"
       id="outercropright"
       inkscape:connector-curvature="0" /><path
       style="color:#000000;fill:#00ff00;fill-opacity:1;fill-rule:nonzero;stroke:none;stroke-width:0;marker:none;visibility:visible;display:inline;overflow:visible;enable-background:accumulate"
       d="m 545.65625,754.71875 0,10.625 535.06255,0 0,-10.625 -535.06255,0 z"
       id="bottomcropright"
       inkscape:connector-curvature="0" /><path
       style="color:#000000;fill:#00ff00;fill-opacity:1;fill-rule:nonzero;stroke:none;stroke-width:0;marker:none;visibility:visible;display:inline;overflow:visible;enable-background:accumulate"
       d="m 545.65625,0 0,10.625 535.06255,0 0,-10.625 -535.06255,0 z"
       id="topcropright"
       inkscape:connector-curvature="0" /><path
       style="color:#000000;fill:#00ff00;fill-opacity:1;fill-rule:nonzero;stroke:#0000ff;stroke-width:1;stroke-linecap:butt;stroke-linejoin:miter;stroke-miterlimit:4;stroke-opacity:1;stroke-dasharray:none;stroke-dashoffset:0;marker:none;visibility:visible;display:inline;overflow:visible;enable-background:accumulate"
       d="m 1080.7081,-10.00046 0,785.35433"
       id="beforecropright"
       inkscape:connector-curvature="0"
       sodipodi:nodetypes="cc" /><path
       style="color:#000000;fill:#ffff00;fill-opacity:1;fill-rule:nonzero;stroke:#00ff00;stroke-width:0;stroke-linecap:round;stroke-linejoin:miter;stroke-miterlimit:4;stroke-opacity:1;stroke-dashoffset:0;marker:none;visibility:visible;display:inline;overflow:visible;enable-background:accumulate"
       d="m 556.29876,-4.6023438e-4 -10.63,0 0,765.35433023438 10.63,0 z"
       id="innercropright"
       inkscape:connector-curvature="0" /><path
       style="color:#000000;fill:#ffff00;fill-opacity:1;fill-rule:nonzero;stroke:#00ff00;stroke-width:0;stroke-linecap:round;stroke-linejoin:miter;stroke-miterlimit:4;stroke-opacity:1;stroke-dashoffset:0;marker:none;visibility:visible;display:inline;overflow:visible;enable-background:accumulate"
       d="m 545.66876,-4.6023438e-4 -10.63,0 0,765.35433023438 10.63,0 z"
       id="innercropleft"
       inkscape:connector-curvature="0" /><path
       style="opacity:0.5;color:#000000;fill:#ffffff;fill-opacity:1;stroke:none"
       d="m 21.25,10.625 0,744.0937 1048.8438,0 0,-744.0937 -1048.8438,0 z"
       id="canvasoverlay"
       inkscape:connector-curvature="0" /><path
       style="fill:none;stroke:#00ff00;stroke-width:1px;stroke-linecap:butt;stroke-linejoin:miter;stroke-opacity:1;display:inline"
       d="m 545.669,771.94051 0,-778.5270405"
       id="centerbuild"
       inkscape:connector-curvature="0" /></g><g
     inkscape:label="XX_PAGE"
     inkscape:groupmode="layer"
     id="refcanvas"
     style="display:inline"
     sodipodi:insensitive="true"><path
       sodipodi:nodetypes="ccccc"
       inkscape:connector-curvature="0"
       id="canvas"
       d="m 21.259843,10.62935 1048.818857,0 0,744.09449 -1048.818857,0 z"
       style="color:#000000;fill:#ffffff;fill-opacity:1;stroke:none;stroke-width:1;marker:none;visibility:visible;display:inline" /></g><g
     inkscape:groupmode="layer"
     id="layer10"
     inkscape:label="XX_SHOWFRAME"
     style="display:none"
     sodipodi:insensitive="true" /><g
     style="display:inline"
     inkscape:label="AUSSEN"
     id="g27455"
     inkscape:groupmode="layer"><flowRoot
       transform="translate(-29.78928,-1.00053)"
       style="font-size:18px;font-style:normal;font-variant:normal;font-weight:300;font-stretch:normal;text-align:start;line-height:140%;letter-spacing:0px;word-spacing:0px;writing-mode:lr-tb;text-anchor:start;fill:#000000;fill-opacity:1;stroke:none;display:inline;font-family:Roboto Mono;-inkscape-font-specification:Roboto Mono Light"
       id="flowRoot27457"
       xml:space="preserve"><flowRegion
         id="flowRegion27459"><rect
           style="font-size:18px;text-align:start;line-height:140%;text-anchor:start;fill:#000000"
           y="49.270065"
           x="641.93927"
           height="506.13821"
           width="414.51208"
           id="rect27461" /></flowRegion><flowPara
         id="flowPara28718"
         style="font-size:12px;line-height:140%">MEM<flowSpan
   style="font-size:12px;line-height:140%;letter-spacing:-2px;fill:#000000"
   id="flowSpan27465">O </flowSpan><flowSpan
   id="flowSpan27467"
   style="font-size:12px;line-height:140%;letter-spacing:-1px;fill:#000000">05/2017:</flowSpan></flowPara><flowPara
         style="font-size:12px;line-height:140%"
         id="flowPara3078" /><flowPara
         id="flowPara3074"
         style="font-size:18px;line-height:140%;letter-spacing:-1px;fill:#000000">Nikolaj Hald Nielsen:</flowPara><flowPara
         id="flowPara3070">From Consumer to Creator</flowPara><flowPara
         id="flowPara3072">The Lego Generation in the Digital Age</flowPara></flowRoot></g><g
     inkscape:groupmode="layer"
     id="layer22"
     inkscape:label="AUSSEN"
     style="display:inline"><path
   style="color:#000000;fill:#ffffff;fill-opacity:1;fill-rule:nonzero;stroke:none;stroke-width:0;marker:none;visibility:visible;display:inline;overflow:visible;enable-background:accumulate"
   d="m 21,506.85376 524.5,0 0,247.5 -524.5,0 z"
   id="rect28257"
   inkscape:connector-curvature="0"
   sodipodi:nodetypes="ccccc" /><g
   id="g3307-7-5"
   transform="matrix(0.53646742,0,0,0.53646742,320.31926,133.90228)"
   style="fill:#000000;display:inline"><g
     id="text3428-3-9-5-9"
     style="font-size:36px;font-style:normal;font-variant:normal;font-weight:bold;font-stretch:normal;text-align:start;line-height:125%;letter-spacing:0px;word-spacing:0px;writing-mode:lr-tb;text-anchor:start;fill:#000000;fill-opacity:1;stroke:none;display:inline;font-family:Nimbus Sans L;-inkscape-font-specification:Nimbus Sans L Bold"
     transform="matrix(0.5385718,0,0,0.5385718,-880.75759,664.54068)"><path
       inkscape:connector-curvature="0"
       id="path3284-6-7"
       d="m 735.4,97.221742 11.484,0 0,-4.5 -11.484,0 0,-5.94 13.032,0 0,-4.5 -18.432,0 0,26.243998 5.4,0 0,-11.303998"
       style="fill:#000000" /><path
       inkscape:connector-curvature="0"
       id="path3286-9-9"
       d="m 757.62381,98.121742 6.192,0 c 2.34,0 3.348,0.936002 3.348,3.131998 0,0.216 0,0.576 -0.036,1.044 -0.036,0.684 -0.036,1.332 -0.036,1.728 0,2.448 0.144,3.24 0.828,4.5 l 5.796,0 0,-0.972 c -0.828,-0.468 -1.152,-1.008 -1.152,-2.16 -0.144,-7.739991 -0.288,-8.1 -3.636,-9.539998 2.952,-1.151999 4.428,-3.276004 4.428,-6.48 0,-2.087998 -0.72,-3.996002 -1.98,-5.292 -1.188,-1.223999 -2.844,-1.8 -5.076,-1.8 l -14.076,0 0,26.243998 5.4,0 0,-10.403998 m 0,-4.5 0,-6.84 6.516,0 c 1.548,0 2.196,0.144 2.844,0.684 0.648,0.539999 0.972,1.440001 0.972,2.664 0,1.259998 -0.36,2.268 -0.972,2.808 -0.576,0.503999 -1.296,0.684 -2.844,0.684 l -6.516,0"
       style="fill:#000000" /><path
       inkscape:connector-curvature="0"
       id="path3288-5-9"
       d="m 783.60344,97.221742 12.564,0 0,-4.5 -12.564,0 0,-5.94 13.572,0 0,-4.5 -18.972,0 0,26.243998 19.62,0 0,-4.5 -14.22,0 0,-6.803998"
       style="fill:#000000" /><path
       inkscape:connector-curvature="0"
       id="path3290-8-0"
       d="m 807.65031,97.221742 12.564,0 0,-4.5 -12.564,0 0,-5.94 13.572,0 0,-4.5 -18.972,0 0,26.243998 19.62,0 0,-4.5 -14.22,0 0,-6.803998"
       style="fill:#000000" /></g><g
     id="text3428-8-9-4-5-5"
     style="font-size:36px;font-style:normal;font-variant:normal;font-weight:bold;font-stretch:normal;text-align:start;line-height:125%;letter-spacing:0px;word-spacing:0px;writing-mode:lr-tb;text-anchor:start;fill:#000000;fill-opacity:1;stroke:none;display:inline;font-family:Nimbus Sans L;-inkscape-font-specification:Nimbus Sans L Bold"
     transform="matrix(0.5385718,0,0,0.5385718,-880.75759,664.54068)"><path
       inkscape:connector-curvature="0"
       id="path3273-1-2"
       d="m 899.47194,99.165757 6.732,0 c 4.82399,0 7.92,-3.420005 7.92,-8.748 0,-5.255995 -2.98801,-8.136 -8.46,-8.136 l -11.592,0 0,26.244003 5.4,0 0,-9.360003 m 0,-4.5 0,-7.884 5.04,0 c 2.87999,0 4.212,1.260003 4.212,3.96 0,2.663997 -1.33201,3.924 -4.212,3.924 l -5.04,0"
       style="fill:#000000" /><path
       inkscape:connector-curvature="0"
       id="path3275-0-1"
       d="m 923.66281,98.121757 6.192,0 c 2.34,0 3.348,0.936002 3.348,3.132003 0,0.216 0,0.576 -0.036,1.044 -0.036,0.684 -0.036,1.332 -0.036,1.728 0,2.44799 0.144,3.24 0.828,4.5 l 5.796,0 0,-0.972 c -0.828,-0.468 -1.152,-1.008 -1.152,-2.16 -0.144,-7.739995 -0.288,-8.100005 -3.636,-9.540003 2.952,-1.151999 4.428,-3.276003 4.428,-6.48 0,-2.087998 -0.72,-3.996001 -1.98,-5.292 -1.188,-1.223999 -2.844,-1.8 -5.076,-1.8 l -14.076,0 0,26.244003 5.4,0 0,-10.404003 m 0,-4.5 0,-6.84 6.516,0 c 1.548,0 2.196,0.144 2.844,0.684 0.648,0.539999 0.972,1.440001 0.972,2.664 0,1.259999 -0.36,2.268 -0.972,2.808 -0.576,0.503999 -1.296,0.684 -2.844,0.684 l -6.516,0"
       style="fill:#000000" /><path
       inkscape:connector-curvature="0"
       id="path3277-4-0"
       d="m 949.64244,97.221757 12.564,0 0,-4.5 -12.564,0 0,-5.94 13.572,0 0,-4.5 -18.972,0 0,26.244003 19.62,0 0,-4.5 -14.22,0 0,-6.804003"
       style="fill:#000000" /><path
       inkscape:connector-curvature="0"
       id="path3279-9-2"
       d="m 987.29731,90.273757 c 0,-2.411998 -0.54,-3.996002 -1.836,-5.436 -1.764,-1.943998 -4.68,-2.988 -8.46,-2.988 -6.29999,0 -9.936,2.952005 -9.936,8.064 0,4.067996 2.05201,6.048001 7.38,7.056 l 3.672,0.72 c 3.6,0.683999 4.932,1.692002 4.932,3.816003 0,2.19599 -2.016,3.528 -5.292,3.528 -3.67199,0 -5.724,-1.54801 -5.904,-4.356 l -5.256,0 c 0.324,5.61599 4.17601,8.676 10.872,8.676 6.768,0 10.764,-3.16801 10.764,-8.496 0,-4.139999 -2.088,-6.300004 -6.948,-7.236003 l -4.104,-0.792 c -3.85199,-0.755999 -4.968,-1.512002 -4.968,-3.42 0,-1.979998 1.76401,-3.24 4.536,-3.24 3.42,0 5.328,1.440002 5.508,4.104 l 5.04,0"
       style="fill:#000000" /><path
       inkscape:connector-curvature="0"
       id="path3281-7-0"
       d="m 1011.3442,90.273757 c 0,-2.411998 -0.54,-3.996002 -1.836,-5.436 -1.764,-1.943998 -4.68,-2.988 -8.46,-2.988 -6.30001,0 -9.93601,2.952005 -9.93601,8.064 0,4.067996 2.052,6.048001 7.38,7.056 l 3.67201,0.72 c 3.6,0.683999 4.932,1.692002 4.932,3.816003 0,2.19599 -2.016,3.528 -5.292,3.528 -3.67201,0 -5.72401,-1.54801 -5.90401,-4.356 l -5.256,0 c 0.324,5.61599 4.176,8.676 10.87201,8.676 6.768,0 10.764,-3.16801 10.764,-8.496 0,-4.139999 -2.088,-6.300004 -6.948,-7.236003 l -4.104,-0.792 c -3.85201,-0.755999 -4.96801,-1.512002 -4.96801,-3.42 0,-1.979998 1.764,-3.24 4.53601,-3.24 3.42,0 5.328,1.440002 5.508,4.104 l 5.04,0"
       style="fill:#000000" /></g><g
     id="text3428-3-7-4-7-6"
     style="font-size:36px;font-style:italic;font-variant:normal;font-weight:bold;font-stretch:normal;text-align:start;line-height:125%;letter-spacing:0px;word-spacing:0px;writing-mode:lr-tb;text-anchor:start;fill:#000000;fill-opacity:1;stroke:none;display:inline;font-family:Nimbus Sans L;-inkscape-font-specification:Nimbus Sans L Bold Italic"
     transform="matrix(0.5385718,0,0,0.5385718,-880.75759,664.54068)"><path
       sodipodi:nodetypes="ccccccccccc"
       inkscape:connector-curvature="0"
       id="path3268-1-3"
       d="m 828.99793,82.281757 -0.972,4.5 14.42607,0 -17.064,17.244003 -0.972,4.5 19.728,0 0.972,-4.5 -13.428,0 17.064,-17.244003 0.972,-4.5 z"
       style="fill:#000000" /><path
       inkscape:connector-curvature="0"
       id="path3270-1-6"
       d="m 855.99981,97.221757 12.564,0 0.936,-4.5 -12.564,0 1.26,-5.94 13.608,0 0.972,-4.5 -19.008,0 -5.58,26.244003 19.62,0 0.972,-4.5 -14.22,0 1.44,-6.804003"
       style="fill:#000000" /></g><g
     id="text3428-3-7-8-26-1-9"
     style="font-size:36px;font-style:italic;font-variant:normal;font-weight:bold;font-stretch:normal;text-align:start;line-height:125%;letter-spacing:0px;word-spacing:0px;writing-mode:lr-tb;text-anchor:start;fill:#000000;fill-opacity:1;stroke:none;display:inline;font-family:Nimbus Sans L;-inkscape-font-specification:Nimbus Sans L Bold Italic"
     transform="matrix(0.5385718,0,0,0.5385718,-880.75759,664.54068)"><path
       inkscape:connector-curvature="0"
       id="path3265-7-4"
       d="m 891.23652,93.050843 -6.588,0 1.404,-6.516 -4.284,0 -1.404,6.516 -6.552,0 -0.9,4.32 6.552,0 -1.404,6.551997 4.284,0 1.404,-6.551997 6.588,0 0.9,-4.32"
       style="fill:#000000" /></g></g><text
   xml:space="preserve"
   style="font-size:8px;font-style:normal;font-variant:normal;font-weight:300;font-stretch:normal;text-align:start;line-height:125%;letter-spacing:0px;word-spacing:0px;writing-mode:lr-tb;text-anchor:start;fill:#000000;fill-opacity:1;stroke:none;display:inline;font-family:Source Code Pro;-inkscape-font-specification:Source Code Pro Light"
   x="151.09695"
   y="520.88354"
   id="text3303-2-8"
   sodipodi:linespacing="125%"><tspan
     sodipodi:role="line"
     id="tspan3305-8-4"
     x="151.09695"
     y="520.88354">freeze.sh/0010</tspan></text>


<text
   sodipodi:linespacing="125%"
   id="text5579-0"
   y="533.88354"
   x="51.09697"
   style="font-size:7px;font-style:normal;font-variant:normal;font-weight:300;font-stretch:normal;text-align:start;line-height:125%;letter-spacing:0.2px;word-spacing:0px;writing-mode:lr-tb;text-anchor:start;fill:#000000;fill-opacity:1;stroke:none;display:inline;font-family:Source Code Pro;-inkscape-font-specification:Source Code Pro Light"
   xml:space="preserve"><tspan
     y="533.88354"
     x="51.09697"
     sodipodi:role="line"
     id="tspan6387-8">     </tspan><tspan
     y="542.63354"
     x="51.09697"
     sodipodi:role="line"
     id="tspan6547-4">  \        .--.      .--.      .-.  __________________</tspan><tspan
     y="551.38354"
     x="51.09697"
     sodipodi:role="line"
     id="tspan6549-4">   \      /    \    /    \    /   \/\         /\    /</tspan><tspan
     y="560.13354"
     x="51.09697"
     sodipodi:role="line"
     id="tspan6551-8">    \    /      '--'      '--'       \       /  \  /</tspan><tspan
     y="568.88354"
     x="51.09697"
     sodipodi:role="line"
     id="tspan6553-2">     '--'                             \     /    \/</tspan><tspan
     y="577.63354"
     x="51.09697"
     sodipodi:role="line"
     id="tspan6555-4">                                       \   /</tspan><tspan
     y="586.38354"
     x="51.09697"
     sodipodi:role="line"
     id="tspan6557-2">                                        \ /</tspan><tspan
     y="595.13354"
     x="51.09697"
     sodipodi:role="line"
     id="tspan6563-7">                                         '</tspan><tspan
     y="603.88354"
     x="51.09697"
     sodipodi:role="line"
     id="tspan6565-9">                                      .-----.</tspan><tspan
     y="612.63354"
     x="51.09697"
     sodipodi:role="line"
     id="tspan6567-9">                                     (       )</tspan><tspan
     y="621.38354"
     x="51.09697"
     sodipodi:role="line"
     id="tspan6589-9">                                      '-----'</tspan><tspan
     y="630.13354"
     x="51.09697"
     sodipodi:role="line"
     id="tspan6573-8">:---------------------------------------------------------:</tspan><tspan
     y="638.88354"
     x="51.09697"
     sodipodi:role="line"
     id="tspan6575-4">|  the physical process of a liquid turning into a solid  |</tspan><tspan
     y="647.63354"
     x="51.09697"
     sodipodi:role="line"
     id="tspan6577-0">|    the halting of all movement in a clever position     |</tspan><tspan
     y="656.38354"
     x="51.09697"
     sodipodi:role="line"
     id="tspan6579-8">| a condition when computer software becomes unresponsive |</tspan><tspan
     y="665.13354"
     x="51.09697"
     sodipodi:role="line"
     id="tspan6581-0">:---------------------------------------------------------:</tspan><tspan
     y="673.88354"
     x="51.09697"
     sodipodi:role="line"
     id="tspan6583-5" /></text>


</g><g
     inkscape:groupmode="layer"
     id="layer24"
     inkscape:label="AUSSEN"
     style="display:inline"><text
   sodipodi:linespacing="125%"
   id="text5579-4"
   y="692.88354"
   x="52.431671"
   style="font-size:8px;font-style:normal;font-variant:normal;font-weight:300;font-stretch:normal;text-align:start;line-height:125%;letter-spacing:0px;word-spacing:0px;writing-mode:lr-tb;text-anchor:start;fill:#000000;fill-opacity:1;stroke:none;display:inline;font-family:Source Code Pro;-inkscape-font-specification:Source Code Pro Light"
   xml:space="preserve"><tspan
     y="692.88354"
     x="52.431671"
     sodipodi:role="line"
     id="tspan6583-8">PRINT DISTRIBUTION MADE POSSIBLE BY LAFKON PUBLISHING. THANK YOU!</tspan></text>


<path
   style="fill:none;stroke:#000000;stroke-width:0.25;stroke-linecap:butt;stroke-linejoin:miter;stroke-miterlimit:4;stroke-opacity:1;stroke-dasharray:none;display:inline"
   d="m 143.50004,695.85377 63,0"
   id="path6237"
   inkscape:connector-curvature="0"
   sodipodi:nodetypes="cc" /><path
   sodipodi:nodetypes="cc"
   inkscape:connector-curvature="0"
   id="path7013"
   d="m 225.50004,695.85377 81,0"
   style="fill:none;stroke:#000000;stroke-width:0.25;stroke-linecap:butt;stroke-linejoin:miter;stroke-miterlimit:4;stroke-opacity:1;stroke-dasharray:none;display:inline" /><path
   d="m 177.50004,702.72877 -2,-2 -2,2 m 2,8.125 0,-10"
   style="fill:none;stroke:#000000;stroke-width:0.25;stroke-linecap:butt;stroke-linejoin:miter;stroke-miterlimit:4;stroke-opacity:1;stroke-dasharray:none;display:inline"
   id="path7020"
   inkscape:connector-curvature="0"
   sodipodi:nodetypes="ccccc" /><path
   sodipodi:nodetypes="cc"
   inkscape:connector-curvature="0"
   id="path7022"
   d="m 143.50004,684.85377 63,0"
   style="fill:none;stroke:#000000;stroke-width:0.25;stroke-linecap:butt;stroke-linejoin:miter;stroke-miterlimit:4;stroke-opacity:1;stroke-dasharray:none;display:inline" /><path
   style="fill:none;stroke:#000000;stroke-width:0.25;stroke-linecap:butt;stroke-linejoin:miter;stroke-miterlimit:4;stroke-opacity:1;stroke-dasharray:none;display:inline"
   d="m 225.50004,684.85377 81,0"
   id="path7024"
   inkscape:connector-curvature="0"
   sodipodi:nodetypes="cc" /><text
   sodipodi:linespacing="125%"
   id="text7072"
   y="721.88354"
   x="124.43167"
   style="font-size:8px;font-style:normal;font-variant:normal;font-weight:300;font-stretch:normal;text-align:start;line-height:125%;letter-spacing:0px;word-spacing:0px;writing-mode:lr-tb;text-anchor:start;fill:#000000;fill-opacity:1;stroke:none;display:inline;font-family:Source Code Pro;-inkscape-font-specification:Source Code Pro Light"
   xml:space="preserve"><tspan
     y="721.88354"
     x="124.43167"
     sodipodi:role="line"
     id="tspan7074">freeze.sh/sponsorazine</tspan></text>


<path
   sodipodi:nodetypes="ccccc"
   inkscape:connector-curvature="0"
   id="path28768"
   style="fill:none;stroke:#000000;stroke-width:0.25;stroke-linecap:butt;stroke-linejoin:miter;stroke-miterlimit:4;stroke-opacity:1;stroke-dasharray:none;display:inline"
   d="m 280.00004,702.72877 -2,-2 -2,2 m 2,8.125 0,-10" /><text
   xml:space="preserve"
   style="font-size:8px;font-style:normal;font-variant:normal;font-weight:300;font-stretch:normal;text-align:start;line-height:125%;letter-spacing:0px;word-spacing:0px;writing-mode:lr-tb;text-anchor:start;fill:#000000;fill-opacity:1;stroke:none;display:inline;font-family:Source Code Pro;-inkscape-font-specification:Source Code Pro Light"
   x="244.60435"
   y="721.88354"
   id="text28770"
   sodipodi:linespacing="125%"><tspan
     id="tspan28772"
     sodipodi:role="line"
     x="244.60435"
     y="721.88354">www.lafkon.net</tspan></text>


</g><g
     inkscape:groupmode="layer"
     id="layer21"
     inkscape:label="INNEN"
     style="display:none"
     sodipodi:insensitive="true" /></svg>